<?xml version="1.0" standalone="no"?>
<!DOCTYPE svg PUBLIC "-//W3C//DTD SVG 20010904//EN"
 "http://www.w3.org/TR/2001/REC-SVG-20010904/DTD/svg10.dtd">
<svg version="1.0" xmlns="http://www.w3.org/2000/svg"
 width="1926.000000pt" height="708.000000pt" viewBox="0 0 1926.000000 708.000000"
 preserveAspectRatio="xMidYMid meet">

<g transform="translate(0.000000,708.000000) scale(0.100000,-0.100000)"
fill="#000000" stroke="none">
<path d="M2835 7004 c-107 -16 -315 -60 -414 -89 -169 -50 -173 -52 -331 -122
-389 -173 -730 -443 -989 -782 -248 -324 -406 -683 -488 -1111 -22 -114 -26
-171 -30 -372 -7 -320 12 -477 92 -760 49 -175 60 -205 137 -371 60 -130 205
-383 241 -419 7 -7 38 -47 69 -88 209 -282 622 -610 933 -742 196 -83 261
-108 313 -122 31 -8 102 -26 157 -41 218 -57 329 -69 605 -69 276 0 387 12
605 69 55 15 126 33 157 41 52 14 117 39 313 122 253 107 579 347 807 593 129
139 164 188 150 208 -78 113 -272 475 -272 508 0 6 -16 53 -35 104 -39 101
-82 246 -91 306 -3 21 -14 85 -24 143 -58 316 -54 619 14 990 29 155 47 219
106 380 76 208 159 378 256 528 30 45 54 86 54 90 0 7 -56 74 -171 204 -68 77
-247 235 -359 319 -124 92 -316 203 -470 272 -161 71 -164 72 -338 123 -269
77 -334 86 -667 89 -165 2 -313 1 -330 -1z m1593 -1519 c103 -31 162 -113 162
-226 -1 -103 -48 -181 -137 -225 -37 -18 -80 -19 -1243 -19 -1282 0 -1238 2
-1335 -47 -97 -49 -159 -121 -203 -235 l-27 -68 -5 -520 -5 -520 -24 -52 c-45
-100 -127 -150 -229 -140 -97 10 -182 82 -211 178 -7 24 -11 205 -11 532 0
549 3 580 65 754 82 230 273 436 487 524 70 29 191 63 253 72 17 2 566 5 1221
6 1047 1 1197 -1 1242 -14z m-822 -882 c80 -43 124 -116 124 -208 0 -96 -51
-177 -135 -216 -38 -18 -80 -19 -746 -19 l-707 0 -53 28 c-99 51 -145 154
-119 264 17 70 96 151 161 166 27 6 306 10 739 9 l695 -2 41 -22z"/>
<path d="M7055 6994 c-155 -23 -334 -68 -520 -130 -84 -28 -337 -149 -424
-203 -45 -28 -85 -51 -87 -51 -12 0 -212 -153 -296 -227 -473 -414 -777 -980
-849 -1583 -34 -282 -21 -639 33 -890 36 -164 115 -385 202 -565 159 -326 368
-592 652 -834 391 -332 882 -538 1409 -592 167 -17 464 -7 623 21 477 83 911
281 1257 574 76 65 227 214 268 264 18 22 54 65 81 96 l49 56 -40 58 c-97 139
-220 393 -298 612 -28 77 -89 330 -109 450 -79 467 -14 993 182 1465 55 131
185 376 234 437 l30 38 -40 53 c-51 68 -239 265 -316 333 -373 327 -845 545
-1343 619 -133 20 -568 19 -698 -1z m228 -1499 c78 -16 156 -50 221 -94 32
-22 216 -245 622 -754 317 -397 599 -749 625 -782 63 -78 82 -117 87 -186 8
-102 -41 -190 -130 -235 -64 -32 -144 -31 -201 5 -22 14 -267 303 -653 771
-503 611 -624 753 -660 772 l-44 23 -43 -23 c-30 -16 -68 -54 -123 -124 -948
-1205 -1100 -1393 -1144 -1415 -115 -59 -299 2 -357 117 -27 53 -29 104 -6
162 10 25 160 221 362 473 190 237 471 587 626 780 154 192 297 366 317 387
47 47 162 106 242 123 81 18 176 18 259 0z m423 -1352 c52 -28 108 -90 124
-138 8 -23 10 -62 7 -98 -6 -71 -40 -125 -106 -172 l-43 -30 -516 -3 c-333 -2
-529 1 -552 7 -48 14 -106 64 -132 114 -30 57 -31 156 -1 212 30 57 74 95 135
116 49 17 88 19 548 16 487 -2 496 -2 536 -24z"/>
<path d="M11326 6994 c-425 -68 -839 -240 -1162 -481 -320 -239 -590 -562
-774 -923 -35 -70 -113 -268 -151 -382 -34 -106 -83 -370 -100 -538 -41 -430
59 -954 256 -1339 118 -230 189 -336 349 -526 272 -322 659 -591 1068 -743 88
-33 350 -99 483 -123 154 -27 454 -36 621 -20 361 37 727 154 1031 328 223
128 395 264 584 460 100 104 189 211 189 227 0 4 -13 26 -28 49 -243 356 -410
857 -432 1298 -26 523 54 929 267 1363 78 159 120 236 166 301 15 22 27 43 27
48 0 31 -211 262 -357 390 -87 76 -285 227 -298 227 -3 0 -44 24 -92 54 -95
59 -395 199 -459 215 -21 5 -95 25 -163 45 -237 69 -312 79 -641 82 -219 2
-318 -1 -384 -12z m1274 -1516 c155 -57 283 -175 361 -333 50 -102 69 -177 76
-292 10 -169 -30 -288 -127 -375 -34 -31 -50 -52 -42 -55 45 -17 113 -87 144
-150 32 -65 33 -72 33 -188 0 -108 -3 -128 -31 -207 -64 -180 -204 -353 -339
-419 l-70 -34 -1310 -3 c-971 -2 -1320 0 -1350 9 -56 16 -92 44 -118 92 l-22
42 -3 863 c-2 589 1 875 8 903 21 77 112 147 220 168 25 5 591 8 1270 8 l1225
-2 75 -27z"/>
<path d="M11228 5023 l-958 -3 0 -579 0 -578 77 -7 c142 -12 2087 -7 2124 5
89 30 145 108 136 192 -5 56 -27 90 -86 132 l-43 30 -811 5 -812 5 -41 22
c-166 89 -176 311 -20 408 l49 30 827 3 827 2 41 35 c111 96 65 268 -79 296
-24 4 -96 7 -159 6 -63 -1 -546 -3 -1072 -4z"/>
<path d="M15665 7004 c-174 -25 -485 -102 -610 -152 -514 -206 -916 -526
-1219 -972 -214 -316 -358 -703 -412 -1110 -20 -149 -22 -442 -5 -580 46 -366
162 -720 328 -999 58 -99 132 -212 143 -221 3 -3 25 -32 49 -65 102 -144 355
-388 548 -526 91 -67 321 -200 390 -228 26 -10 97 -40 158 -66 60 -25 125 -50
145 -54 19 -5 89 -23 155 -40 237 -63 343 -75 625 -75 276 0 387 12 605 69 55
15 126 33 157 41 52 14 117 39 313 122 311 132 724 460 933 742 31 41 62 81
69 88 35 36 178 285 240 417 77 167 88 196 138 373 80 283 99 440 92 760 -4
201 -8 258 -30 372 -82 428 -240 787 -488 1111 -259 339 -600 609 -989 782
-80 35 -161 70 -180 76 -122 40 -285 83 -401 107 -126 26 -151 28 -429 30
-162 1 -308 0 -325 -2z m2050 -1505 c86 -24 158 -103 171 -187 16 -105 -36
-204 -130 -248 l-51 -24 -752 0 -752 0 -3 -722 c-3 -687 -4 -725 -22 -761 -86
-173 -316 -183 -418 -19 l-23 37 -5 730 -5 730 -765 5 -765 5 -42 22 c-183 98
-153 374 48 431 51 15 3461 15 3514 1z"/>
<path d="M5086 1059 c-99 -220 -192 -421 -208 -446 -19 -30 -42 -50 -68 -61
-22 -10 -40 -23 -40 -29 0 -10 38 -13 155 -13 124 0 155 3 155 14 0 8 -16 16
-42 19 -47 6 -78 35 -78 71 0 11 13 53 29 91 l28 70 164 0 163 0 40 -98 41
-99 -24 -19 c-13 -10 -38 -19 -57 -19 -24 0 -34 -5 -34 -15 0 -13 32 -15 225
-15 177 0 225 3 225 13 0 7 -15 17 -32 22 -21 7 -42 25 -59 50 -15 22 -108
224 -207 450 -99 225 -184 411 -188 412 -5 2 -90 -177 -188 -398z m167 -76
l65 -153 -134 0 c-74 0 -134 3 -134 6 0 10 132 305 135 302 1 -2 32 -72 68
-155z"/>
<path d="M16634 1426 c-26 -26 -34 -42 -34 -71 0 -29 8 -45 34 -71 71 -71 176
-29 176 71 0 100 -105 142 -176 71z"/>
<path d="M700 1425 c0 -11 11 -15 39 -15 23 0 48 -8 62 -19 l24 -19 3 -369 c2
-249 0 -380 -8 -406 -12 -41 -38 -57 -91 -57 -19 0 -29 -5 -29 -15 0 -13 33
-15 240 -15 207 0 240 2 240 15 0 10 -10 15 -30 15 -42 0 -86 25 -94 52 -3 13
-6 98 -6 191 l0 167 39 0 c90 0 151 -50 177 -146 9 -35 21 -64 25 -64 5 0 9
104 9 230 0 135 -4 230 -9 230 -5 0 -17 -24 -25 -54 -28 -94 -74 -131 -171
-138 l-40 -3 -3 188 c-2 168 -1 188 14 194 10 3 68 2 130 -4 86 -8 123 -16
155 -34 48 -27 84 -81 94 -141 4 -23 12 -38 21 -38 11 0 14 25 14 135 l0 135
-390 0 c-340 0 -390 -2 -390 -15z"/>
<path d="M7240 1427 c0 -10 15 -16 46 -20 82 -9 79 8 82 -395 2 -196 0 -376
-3 -400 -7 -47 -39 -72 -95 -72 -21 0 -30 -5 -30 -16 0 -14 31 -15 303 -12
332 5 360 9 450 69 67 44 99 103 100 183 1 112 -62 185 -195 224 l-52 15 47
17 c111 42 157 98 157 189 0 89 -50 160 -145 203 -48 22 -63 23 -357 26 -266
3 -308 2 -308 -11z m477 -58 c37 -12 90 -68 99 -105 4 -14 4 -50 2 -80 -7 -88
-54 -136 -150 -155 -91 -18 -88 -25 -88 174 0 96 3 177 7 181 9 9 82 0 130
-15z m21 -420 c139 -53 153 -286 22 -358 -55 -31 -131 -34 -157 -8 -16 15 -18
41 -21 188 -2 94 -1 177 2 186 5 13 17 14 67 9 34 -4 73 -12 87 -17z"/>
<path d="M10530 1427 c0 -7 15 -17 32 -22 49 -15 58 -43 58 -183 l0 -123 -46
33 c-42 30 -53 33 -119 33 -65 0 -78 -3 -116 -30 -99 -70 -142 -166 -141 -319
0 -119 26 -191 91 -256 53 -53 122 -77 190 -65 38 6 121 58 121 76 0 5 4 9 9
9 6 0 11 -19 13 -43 l3 -43 133 25 c90 17 132 29 132 38 0 7 -9 13 -20 13 -11
0 -29 9 -40 20 -19 19 -20 33 -20 435 l0 415 -140 0 c-108 0 -140 -3 -140 -13z
m46 -371 l44 -43 0 -170 0 -170 -30 -41 c-43 -60 -93 -70 -138 -29 -36 34 -52
107 -52 242 0 183 28 255 98 255 28 0 43 -9 78 -44z"/>
<path d="M13630 1315 c0 -104 2 -125 15 -125 8 0 15 8 15 19 0 26 24 81 51
115 29 37 70 54 153 62 l66 7 0 -402 0 -402 -25 -24 c-18 -18 -35 -25 -65 -25
-29 0 -40 -4 -40 -15 0 -13 34 -15 245 -15 211 0 245 2 245 15 0 11 -11 15
-39 15 -28 0 -49 7 -68 24 l-28 24 0 399 0 398 50 -1 c28 0 66 -3 86 -7 51
-10 105 -68 126 -134 9 -29 23 -53 30 -53 10 0 13 28 13 125 l0 125 -415 0
-415 0 0 -125z"/>
<path d="M16110 1425 c0 -9 9 -15 24 -15 13 0 33 -8 45 -17 19 -16 22 -32 28
-155 3 -76 3 -138 -1 -138 -4 0 -25 15 -48 33 -37 29 -46 32 -112 32 -63 0
-79 -4 -122 -30 -53 -33 -105 -107 -126 -180 -16 -54 -16 -221 1 -270 59 -181
238 -250 360 -139 21 19 41 34 44 34 3 0 7 -19 9 -43 l3 -43 129 26 c75 14
131 30 134 38 2 7 -5 12 -17 12 -12 0 -30 9 -41 20 -19 19 -20 33 -20 435 l0
415 -145 0 c-122 0 -145 -2 -145 -15z m40 -351 c55 -47 60 -67 60 -243 0 -159
0 -160 -27 -193 -43 -51 -55 -58 -98 -55 -35 2 -42 7 -62 42 -61 112 -53 383
14 457 24 27 76 23 113 -8z"/>
<path d="M2545 1333 c-36 -58 -133 -162 -180 -194 -49 -34 -47 -59 5 -59 l40
0 0 -231 c0 -151 4 -238 11 -252 51 -99 183 -127 265 -55 43 38 70 86 56 100
-7 7 -16 2 -26 -14 -19 -30 -60 -50 -82 -41 -29 11 -34 53 -34 274 l0 219 75
0 75 0 0 35 0 35 -75 0 -75 0 0 115 c0 132 -8 142 -55 68z"/>
<path d="M6653 1353 c-42 -68 -116 -152 -172 -197 -72 -58 -77 -76 -21 -76
l40 0 1 -197 c0 -292 11 -329 101 -367 84 -35 180 -1 225 79 27 48 14 72 -17
32 -34 -42 -57 -51 -86 -32 l-24 15 0 235 0 235 75 0 75 0 0 35 0 35 -75 0
-75 0 0 115 c0 95 -3 115 -15 115 -8 0 -22 -12 -32 -27z"/>
<path d="M13035 1338 c-46 -70 -113 -144 -171 -188 -67 -53 -70 -70 -9 -70
l45 0 0 -237 c0 -274 3 -283 85 -323 82 -40 172 -13 229 68 23 32 27 45 18 54
-9 9 -16 5 -32 -15 -34 -42 -57 -51 -86 -32 l-24 15 0 235 0 235 75 0 75 0 0
35 0 35 -75 0 -75 0 0 115 c0 131 -9 143 -55 73z"/>
<path d="M3986 1147 c-22 -12 -59 -46 -83 -75 l-43 -53 0 66 0 65 -130 0
c-109 0 -130 -2 -130 -15 0 -8 8 -15 19 -15 42 0 46 -22 49 -260 4 -255 -3
-306 -43 -316 -14 -3 -25 -12 -25 -20 0 -11 31 -14 170 -14 144 0 170 2 170
15 0 8 -8 15 -18 15 -10 0 -28 7 -40 16 -21 14 -22 21 -22 164 0 163 11 236
42 275 34 43 51 47 90 20 50 -34 83 -40 113 -21 47 31 52 129 8 162 -27 20
-83 16 -127 -9z"/>
<path d="M4397 1156 c-124 -45 -198 -165 -198 -327 -1 -156 47 -258 146 -308
40 -21 63 -26 125 -26 64 0 83 5 122 28 51 30 89 71 118 128 30 57 7 58 -44 2
-43 -48 -44 -48 -106 -48 -61 0 -63 1 -105 47 -29 32 -47 64 -58 105 -29 100
-41 93 159 93 l177 0 -6 53 c-24 200 -168 310 -330 253z m137 -76 c12 -21 21
-59 24 -106 l5 -74 -93 0 -93 0 5 69 c10 141 97 205 152 111z"/>
<path d="M6225 1154 c-39 -20 -71 -49 -106 -98 l-29 -39 0 66 0 67 -136 0
c-102 0 -135 -3 -132 -12 3 -7 15 -15 29 -18 43 -10 51 -59 47 -311 -3 -206
-5 -229 -22 -248 -11 -12 -27 -21 -38 -21 -10 0 -18 -7 -18 -15 0 -13 26 -15
175 -15 149 0 175 2 175 15 0 9 -9 15 -23 15 -50 0 -57 23 -57 191 0 182 13
243 61 283 17 15 36 23 42 19 7 -4 27 -17 46 -30 44 -30 76 -29 106 2 35 34
35 112 2 143 -28 26 -79 29 -122 6z"/>
<path d="M8586 1147 c-22 -12 -59 -46 -83 -75 l-43 -53 0 66 0 65 -130 0
c-109 0 -130 -2 -130 -15 0 -8 8 -15 19 -15 42 0 46 -22 49 -260 4 -255 -3
-306 -43 -316 -14 -3 -25 -12 -25 -20 0 -11 31 -14 170 -14 144 0 170 2 170
15 0 8 -8 15 -18 15 -10 0 -28 7 -40 16 -21 15 -22 21 -22 173 0 184 13 245
61 286 31 25 32 25 58 8 77 -50 101 -54 136 -18 34 33 36 114 3 145 -29 27
-82 26 -132 -3z"/>
<path d="M8993 1156 c-69 -22 -119 -69 -158 -149 -88 -178 -36 -396 115 -481
50 -28 63 -31 140 -31 72 1 93 5 136 27 61 32 98 73 133 148 23 48 26 68 26
160 0 94 -3 111 -28 165 -35 74 -67 109 -132 142 -61 32 -168 40 -232 19z
m138 -46 c10 -6 27 -25 36 -43 16 -28 18 -60 18 -232 0 -180 -2 -204 -20 -240
-38 -76 -109 -71 -150 10 -18 36 -20 59 -19 215 0 106 5 192 13 217 20 71 70
101 122 73z"/>
<path d="M9690 1154 c-106 -29 -170 -92 -170 -167 0 -55 35 -87 95 -87 35 0
52 6 70 25 32 31 31 61 -1 109 l-26 38 20 21 c14 14 35 20 67 21 39 1 51 -3
71 -27 21 -24 24 -38 23 -100 l-1 -72 -111 -55 c-134 -66 -199 -123 -217 -190
-16 -57 2 -113 43 -144 56 -41 171 -18 257 52 l25 20 20 -37 c25 -44 82 -68
139 -57 43 8 133 83 117 99 -5 5 -18 4 -32 -3 -43 -24 -49 3 -49 230 0 238 -5
255 -85 305 -41 26 -60 30 -124 32 -45 2 -99 -4 -131 -13z m150 -392 l0 -108
-29 -17 c-42 -25 -76 -22 -100 9 -28 36 -26 63 7 112 21 32 106 111 120 112 1
0 2 -49 2 -108z"/>
<path d="M11190 1161 c-84 -27 -156 -99 -191 -190 -34 -85 -32 -226 2 -301 57
-123 130 -174 249 -174 108 0 186 44 245 137 15 24 16 30 5 37 -10 6 -26 -2
-51 -25 -93 -83 -205 -39 -259 101 -27 70 -38 218 -21 280 32 118 120 127 137
14 10 -63 28 -95 63 -110 61 -25 121 14 121 78 0 48 -29 94 -80 128 -34 23
-54 28 -118 30 -42 2 -88 0 -102 -5z"/>
<path d="M11790 1154 c-106 -29 -170 -92 -170 -167 0 -55 35 -87 95 -87 35 0
52 6 70 25 32 31 31 61 -1 109 l-26 38 20 21 c14 14 35 20 67 21 39 1 51 -3
71 -27 21 -24 24 -38 23 -100 l-1 -72 -111 -55 c-134 -66 -199 -123 -217 -190
-16 -57 2 -113 43 -144 56 -41 171 -18 257 52 l25 20 20 -37 c25 -44 82 -68
139 -57 43 8 133 83 117 99 -5 5 -18 4 -32 -3 -43 -24 -49 3 -49 230 0 238 -5
255 -85 305 -41 26 -60 30 -124 32 -45 2 -99 -4 -131 -13z m150 -392 l0 -108
-29 -17 c-42 -25 -76 -22 -100 9 -28 36 -26 63 7 112 21 32 106 111 120 112 1
0 2 -49 2 -108z"/>
<path d="M12410 1154 c-73 -32 -110 -92 -110 -181 0 -87 34 -130 200 -251 36
-26 71 -59 78 -74 19 -40 5 -78 -35 -94 -30 -13 -38 -13 -76 4 -48 21 -100 76
-122 127 -25 61 -35 42 -35 -67 0 -118 10 -146 38 -110 l18 23 75 -22 c92 -27
149 -21 208 21 54 39 84 100 85 170 1 81 -32 131 -135 206 -128 92 -159 122
-159 155 0 19 8 34 25 45 53 35 134 -10 186 -102 17 -30 35 -54 40 -54 10 0
12 105 3 174 -7 45 -26 62 -38 31 -3 -8 -14 -15 -24 -15 -11 0 -36 7 -55 15
-46 19 -122 19 -167 -1z"/>
<path d="M14847 1149 c-21 -11 -57 -44 -80 -74 l-42 -55 -3 65 -3 65 -129 0
c-106 0 -130 -3 -130 -14 0 -8 10 -16 22 -18 42 -6 48 -38 48 -274 0 -263 -3
-283 -42 -298 -15 -6 -28 -16 -28 -23 0 -10 38 -13 170 -13 144 0 170 2 170
15 0 8 -9 15 -20 15 -11 0 -29 9 -40 20 -18 18 -20 33 -20 163 0 193 22 276
81 308 12 6 28 1 54 -17 53 -36 85 -40 117 -14 48 37 46 134 -3 160 -28 16
-81 11 -122 -11z"/>
<path d="M15280 1156 c-87 -24 -147 -70 -169 -129 -17 -45 -13 -66 18 -98 23
-23 38 -29 71 -29 54 0 75 12 89 51 10 28 8 38 -15 77 l-26 44 21 22 c30 30
102 29 132 -1 17 -17 23 -37 27 -96 l4 -74 -112 -59 c-169 -87 -230 -151 -230
-236 0 -64 64 -128 127 -128 38 0 93 22 152 60 40 26 61 35 61 26 0 -8 11 -28
25 -44 30 -36 84 -48 142 -33 48 13 109 72 99 97 -6 16 -8 16 -26 -1 -16 -15
-22 -15 -35 -5 -12 10 -15 45 -15 209 0 108 -5 212 -10 233 -13 45 -75 103
-127 117 -50 14 -146 12 -203 -3z m150 -395 c0 -96 -1 -100 -26 -120 -59 -46
-130 -10 -121 61 3 20 15 51 27 68 22 31 95 90 112 90 4 0 8 -45 8 -99z"/>
<path d="M17314 1156 c-17 -7 -47 -28 -66 -45 -20 -17 -38 -31 -42 -31 -3 0
-6 16 -6 35 l0 35 -130 0 c-128 0 -160 -9 -106 -30 14 -5 30 -18 35 -29 7 -12
11 -111 11 -265 0 -233 -1 -247 -20 -266 -11 -11 -27 -20 -35 -20 -8 0 -15 -7
-15 -15 0 -13 25 -15 165 -15 134 0 165 3 165 14 0 8 -11 17 -24 20 -13 3 -27
14 -32 23 -4 10 -10 109 -12 219 l-4 201 33 38 c54 61 105 69 127 19 8 -16 12
-100 12 -242 0 -181 -3 -221 -16 -240 -8 -12 -22 -22 -30 -22 -8 0 -14 -7 -14
-15 0 -13 24 -15 160 -15 130 0 160 3 160 14 0 8 -11 17 -24 20 -13 3 -27 14
-32 23 -4 10 -10 127 -13 260 -7 265 -7 267 -74 317 -34 25 -129 32 -173 12z"/>
<path d="M17899 1156 c-108 -38 -162 -104 -167 -206 -6 -100 23 -150 117 -203
l44 -25 -34 -17 c-73 -37 -109 -88 -109 -156 0 -36 6 -48 39 -80 l40 -37 -25
-6 c-60 -15 -92 -84 -64 -137 51 -94 408 -107 530 -18 77 56 102 171 53 238
-43 56 -74 65 -249 71 -176 6 -194 12 -194 60 0 50 38 69 129 67 70 -1 85 2
145 32 78 38 122 90 131 155 8 51 -7 113 -36 150 l-20 26 60 0 61 0 0 35 0 35
-102 0 c-62 0 -122 6 -152 15 -60 18 -148 19 -197 1z m154 -46 c36 -28 49 -78
49 -180 0 -66 -4 -98 -18 -127 -40 -81 -116 -75 -149 11 -23 59 -17 215 9 264
27 51 69 64 109 32z m139 -709 c15 -5 32 -20 38 -32 10 -18 9 -26 -7 -48 -35
-46 -68 -56 -193 -56 -126 0 -160 11 -182 61 -10 20 -8 29 9 52 11 14 31 30
44 34 33 10 258 2 291 -11z"/>
<path d="M1560 1140 c0 -6 12 -15 27 -21 15 -6 31 -16 35 -22 4 -7 8 -95 8
-197 1 -292 16 -351 104 -391 70 -32 137 -20 211 36 l45 35 0 -35 0 -35 130 0
c109 0 130 2 130 15 0 8 -6 15 -13 15 -8 0 -21 8 -30 18 -15 16 -17 53 -17
305 l0 287 -130 0 c-109 0 -130 -2 -130 -15 0 -8 6 -15 14 -15 8 0 22 -7 30
-16 14 -13 16 -48 16 -229 l0 -214 -34 -35 c-34 -37 -74 -47 -105 -27 -22 14
-29 100 -30 339 l-1 212 -130 0 c-82 0 -130 -4 -130 -10z"/>
<path d="M2810 1136 c0 -8 10 -16 22 -18 42 -6 48 -39 48 -263 0 -116 5 -226
10 -247 13 -46 77 -105 124 -113 57 -11 130 12 181 57 l45 40 0 -41 0 -41 130
0 c104 0 130 3 130 14 0 8 -11 17 -25 20 -15 4 -30 18 -35 32 -6 14 -10 148
-10 300 l0 274 -130 0 c-106 0 -130 -3 -130 -14 0 -8 10 -16 22 -18 41 -6 48
-39 48 -252 l0 -198 -39 -40 c-33 -32 -46 -39 -73 -36 -54 5 -58 23 -58 306
l0 252 -130 0 c-106 0 -130 -3 -130 -14z"/>
<path d="M16540 1135 c0 -8 9 -15 19 -15 11 0 27 -10 35 -22 14 -19 16 -62 16
-270 0 -235 -1 -249 -20 -268 -11 -11 -27 -20 -35 -20 -8 0 -15 -7 -15 -15 0
-13 26 -15 170 -15 138 0 170 3 170 14 0 7 -13 16 -29 19 -45 9 -51 47 -51
345 l0 262 -130 0 c-109 0 -130 -2 -130 -15z"/>
</g>
</svg>
