<svg xmlns="http://www.w3.org/2000/svg" viewBox="0 0 210.15 108.02"><defs><style>.cls-1{fill:#231f20;}</style></defs><title>ICON 02</title><g id="Layer_2" data-name="Layer 2"><g id="Layer_2-2" data-name="Layer 2"><path class="cls-1" d="M207.29,35.94A3.5,3.5,0,0,0,204,32.6l-14.67-.74A34.58,34.58,0,0,0,177.44,8.63a3.61,3.61,0,0,0-1.82-.8l-3.57-.47-.46-.06c-29.3-4.07-64-8.54-72.55-7C82.46,3.33,27,32.25,20.89,35.45l-18,3.33A3.51,3.51,0,0,0,0,42.23V92a3.51,3.51,0,0,0,2.88,3.45L71.81,108l.19,0,.11,0h.46l134.22-5.25a3.5,3.5,0,0,0,3.36-3.65Zm-25,3h-.09c0,.3,0,.59,0,.89-2.13,15-14.84,25.75-28.54,24A24,24,0,0,1,137,53.57,29.18,29.18,0,0,1,132,33c1.21-9.44,6.77-17.73,14.63-21.87l24.47,3.2h0l2.52.33C180,20.51,183.29,29.68,182.26,38.91Zm-81.69-4.53,24.24,1.23a35.84,35.84,0,0,0,6.46,22A30.56,30.56,0,0,0,156.53,71a30.57,30.57,0,0,0,13.82-3.35,40.9,40.9,0,0,1-70-28.73A42.39,42.39,0,0,1,100.57,34.38ZM115,7.52c6.34.52,13.92,1.34,21.54,2.25a36.54,36.54,0,0,0-10.83,18.87l-23.75-1.2A40.62,40.62,0,0,1,115,7.52ZM100.3,7.2A29.27,29.27,0,0,1,105.49,7a47.33,47.33,0,0,0-10.71,20.1L72.61,26h-.38L72,26l-.19,0h0L45.11,31C64.14,21.48,90.42,9,100.3,7.2ZM7,45.14,68.94,33.66v66.67L7,89.09Zm68.94,55.74V33.14L93.57,34c-.16,1.61-.25,3.23-.25,4.88a47.93,47.93,0,0,0,95.83,1.4s0-.05,0-.07c.06-.46.11-.91.15-1.37l11.13.56L203,95.91Z"/><path class="cls-1" d="M53.88,46.33a1.48,1.48,0,0,0-1.17-.28l-29.56,5.2a1.51,1.51,0,0,0-1.24,1.48V80.65a1.5,1.5,0,0,0,1.5,1.5H56a1.52,1.52,0,0,0,1.11-.49,1.49,1.49,0,0,0,.38-1.14l-3-33.13A1.53,1.53,0,0,0,53.88,46.33Zm-29,32.82V54l26.71-4.71,2.71,29.87Z"/><path class="cls-1" d="M14.65,57a1.5,1.5,0,0,0-1.5,1.5V72.1a1.5,1.5,0,1,0,3,0V58.48A1.5,1.5,0,0,0,14.65,57Z"/><path class="cls-1" d="M195.85,69.21l-9.3-.5a1.51,1.51,0,0,0-1.39.77l-6,10.79a1.48,1.48,0,0,0-.19.65l-.33,6.15A1.53,1.53,0,0,0,179,88.2a1.49,1.49,0,0,0,1.07.45h0l16.26-.56a1.52,1.52,0,0,0,1.45-1.55l-.58-15.89A1.51,1.51,0,0,0,195.85,69.21ZM181.68,85.59l.22-4.16,5.42-9.67,7,.37.47,13Z"/><path class="cls-1" d="M154.57,21.52c-8.15,0-14.79,7.21-14.79,16.08s6.64,16.08,14.79,16.08,14.79-7.21,14.79-16.08S162.73,21.52,154.57,21.52Zm0,29.16c-6.5,0-11.79-5.87-11.79-13.08s5.29-13.08,11.79-13.08,11.79,5.86,11.79,13.08S161.07,50.68,154.57,50.68Z"/><path class="cls-1" d="M86.32,55.31a4,4,0,1,0,3.48,3.93A3.73,3.73,0,0,0,86.32,55.31Z"/></g></g></svg>