<svg xmlns="http://www.w3.org/2000/svg" viewBox="0 0 209.31 139.02"><defs><style>.cls-1{fill:#231f20;}</style></defs><title>ICON 04</title><g id="Layer_2" data-name="Layer 2"><g id="Layer_2-2" data-name="Layer 2"><path class="cls-1" d="M205.83,44.64H152.48V19.45h19.07l1,1.4a3.48,3.48,0,0,0,2.84,1.47,2.36,2.36,0,0,0,.37,0l7.94-.84A3.48,3.48,0,0,0,186.8,18V3.47A3.48,3.48,0,0,0,183.32,0H85.67a3.48,3.48,0,0,0-3.48,3.47v.88H58.34a3.47,3.47,0,0,0-3.47,3.57c-11.32,1.5-20,10.25-20,20.79,0,11.59,10.54,21,23.49,21a26.39,26.39,0,0,0,6.87-.91l2,7.72a3.48,3.48,0,0,0,3.22,2.61l5.19.22.47,3.52a3.46,3.46,0,0,0,3.44,3h1.68l-3.26,1.23-9.54-4.77a3.46,3.46,0,0,0-5,2.75l-51.5-4.37a3.47,3.47,0,0,0-3.63,2.48L7.9,64.42l-1.26.14A3.51,3.51,0,0,0,4.22,66C3.52,66.91,0,72.77,0,94.12c0,21,3.67,27.43,4.09,28.09A3.44,3.44,0,0,0,6.7,123.8l1.55.15.44,1.22A3.45,3.45,0,0,0,12,127.49h.36l51-5.31v1a3.48,3.48,0,0,0,5,3.14l9.58-4.57,10.79,3.88v10A3.47,3.47,0,0,0,92.17,139H194.81A3.45,3.45,0,0,0,198,137l3.3-7.41,5.11-.83a3.49,3.49,0,0,0,2.92-3.43V48.12A3.48,3.48,0,0,0,205.83,44.64Zm-60.3,0H125a90.4,90.4,0,0,1-.88-12.82,75.29,75.29,0,0,1,1-12.37h20.37Zm-34,0a90.44,90.44,0,0,1-.87-12.82,75.5,75.5,0,0,1,1-12.37h10.49a78.55,78.55,0,0,0-1,12.37A93.28,93.28,0,0,0,122,44.64ZM89.14,7h90.71v7.93l-2.81.3L176.19,14a3.48,3.48,0,0,0-2.84-1.47H89.14ZM41.79,28.71a12.14,12.14,0,0,1,.79-4.29,4.7,4.7,0,0,1,.1,8.83A12.16,12.16,0,0,1,41.79,28.71ZM58.34,42.79a17.29,17.29,0,0,1-14.23-6.91A7.69,7.69,0,0,0,44,21.76a17,17,0,0,1,12.55-7l7,27.36A19.28,19.28,0,0,1,58.34,42.79ZM78.8,52.55l-5.53-.23-10.46-41H82.19V16a3.47,3.47,0,0,0,3.48,3.47h23a78.34,78.34,0,0,0-1,12.37,93.28,93.28,0,0,0,.84,12.82H92.17a3.47,3.47,0,0,0-3.47,3.48V59H82.55l-.45-3.4A3.47,3.47,0,0,0,78.8,52.55ZM32.21,92.68a123.73,123.73,0,0,1,2.13-23.05l11.8,1a131.74,131.74,0,0,0-1.83,22.05A153.41,153.41,0,0,0,46.13,117L34.35,118.2A142.11,142.11,0,0,1,32.21,92.68ZM14.07,119.54a3.49,3.49,0,0,0-3-2.31l-1.69-.15c-.89-2.69-2.47-9.39-2.47-23C7,80.2,8.51,73.74,9.37,71.25L11,71.07a3.48,3.48,0,0,0,3-2.47l.2-.69L27.37,69a131.32,131.32,0,0,0-2.11,23.64,149.53,149.53,0,0,0,2.15,26.24l-13.08,1.36Zm39-3.28a146.05,146.05,0,0,1-1.8-23.58A125.3,125.3,0,0,1,53.1,71.22l10.26.87v43.1Zm25.84-1.59a3.4,3.4,0,0,0-1.17-.21,3.54,3.54,0,0,0-1.5.34l-5.93,2.83V71.1L76.17,74a3.46,3.46,0,0,0,2.78.15L88.7,70.5v47.69Zm123.46,7.67-4.06.66a3.49,3.49,0,0,0-2.61,2l-3.14,7.06H95.65V51.59H202.36Z"/><path class="cls-1" d="M113.16,109.24a7.39,7.39,0,1,0,7.4,7.39A7.39,7.39,0,0,0,113.16,109.24Z"/><path class="cls-1" d="M170.88,119H191a6.45,6.45,0,0,0,6.45-6.45V69.17A6.46,6.46,0,0,0,191,62.72H170.88a6.46,6.46,0,0,0-6.45,6.45v43.38A6.45,6.45,0,0,0,170.88,119Zm-3.47-49.83a3.48,3.48,0,0,1,3.47-3.47H191a3.48,3.48,0,0,1,3.47,3.47v43.38A3.48,3.48,0,0,1,191,116H170.88a3.48,3.48,0,0,1-3.47-3.48Z"/><path class="cls-1" d="M117.63,83.11V96.84a6.46,6.46,0,0,0,6.45,6.45h31a6.45,6.45,0,0,0,6.45-6.45V83.11A6.46,6.46,0,0,0,155,76.66h-31A6.47,6.47,0,0,0,117.63,83.11Zm40.89,0V96.84a3.47,3.47,0,0,1-3.48,3.47h-31a3.47,3.47,0,0,1-3.47-3.47V83.11a3.48,3.48,0,0,1,3.47-3.47h31A3.48,3.48,0,0,1,158.52,83.11Z"/><path class="cls-1" d="M152.74,120H146a2.54,2.54,0,1,0,0,5.07h6.71a2.54,2.54,0,1,0,0-5.07Z"/></g></g></svg>