<svg id="Layer_1" data-name="Layer 1" xmlns="http://www.w3.org/2000/svg" viewBox="0 0 256 256"><defs><style>.cls-1{fill:#1d1d1b;}.cls-2{fill-rule:evenodd;}.cls-3,.cls-4{fill:none;stroke:#1d1d1b;stroke-miterlimit:10;}.cls-3{stroke-width:1.25px;}.cls-5{fill:#fff;}</style></defs><path class="cls-1" d="M41.75,202.17h12a0,0,0,0,1,0,0v3.51a0,0,0,0,1,0,0h-15a0,0,0,0,1,0,0v-.48A3,3,0,0,1,41.75,202.17Z" transform="translate(92.43 407.84) rotate(180)"/><path class="cls-1" d="M33,196.52H47.89a0,0,0,0,1,0,0V200a0,0,0,0,1,0,0H36.07a3,3,0,0,1-3-3v-.48A0,0,0,0,1,33,196.52Z" transform="translate(238.73 157.8) rotate(90)"/><path class="cls-1" d="M38.79,118.56h15a0,0,0,0,1,0,0v3.51a0,0,0,0,1,0,0h-12a3,3,0,0,1-3-3v-.48A0,0,0,0,1,38.79,118.56Z" transform="translate(92.56 240.62) rotate(180)"/><path class="cls-1" d="M36.13,124.21H48a0,0,0,0,1,0,0v3.51a0,0,0,0,1,0,0H33.11a0,0,0,0,1,0,0v-.48A3,3,0,0,1,36.13,124.21Z" transform="translate(-85.43 166.5) rotate(-90)"/><path class="cls-2" d="M26.34,156.7V161h1.49a.27.27,0,0,1,.28.25.28.28,0,0,1-.28.26H26.06a.27.27,0,0,1-.27-.26V156.7h-.5a.7.7,0,0,1-.73-.67h0a.7.7,0,0,1,.73-.66h.57a1.81,1.81,0,0,1,.75-1A2.46,2.46,0,0,1,28.2,154h9a2.87,2.87,0,0,1,1.93.56,2.41,2.41,0,0,1,.65,1.86v10.09a.3.3,0,0,1-.11.23.36.36,0,0,1-.25.1H29.65a.41.41,0,0,1-.22-.07l0,0a.33.33,0,0,1-.1-.23v-10.1A2.44,2.44,0,0,0,29,155a1,1,0,0,0-.79-.53,1.94,1.94,0,0,0-1.25.28,1.2,1.2,0,0,0-.49.62"/><path d="M198.89,98.1H56.34a25,25,0,0,0-25,25L31,155h6l.12-31.91a19.19,19.19,0,0,1,19.17-19.17H198.89a19.19,19.19,0,0,1,19.17,19.17L217.93,155h5.53l.39-31.91A25,25,0,0,0,198.89,98.1Z"/><rect class="cls-3" x="42.83" y="122.67" width="169.82" height="78.93"/><rect class="cls-4" x="40" y="119.45" width="175.45" height="85.43"/><path class="cls-1" d="M204.26,119h12a0,0,0,0,1,0,0v3.51a0,0,0,0,1,0,0h-15a0,0,0,0,1,0,0v-.48A3,3,0,0,1,204.26,119Z"/><path class="cls-1" d="M207,124.68h14.85a0,0,0,0,1,0,0v3.51a0,0,0,0,1,0,0H210.07a3,3,0,0,1-3-3v-.48A0,0,0,0,1,207,124.68Z" transform="translate(88.03 340.91) rotate(-90)"/><path class="cls-1" d="M201.71,202.13h15a0,0,0,0,1,0,0v3.51a0,0,0,0,1,0,0h-12a3,3,0,0,1-3-3v-.48A0,0,0,0,1,201.71,202.13Z"/><path class="cls-1" d="M210.55,196.47h11.82a0,0,0,0,1,0,0V200a0,0,0,0,1,0,0H207.53a0,0,0,0,1,0,0v-.48A3,3,0,0,1,210.55,196.47Z" transform="translate(413.18 -16.73) rotate(90)"/><path class="cls-1" d="M109.52,117.17H146a1.75,1.75,0,0,1,1.75,1.75v.28a0,0,0,0,1,0,0H107.77a0,0,0,0,1,0,0v-.28A1.75,1.75,0,0,1,109.52,117.17Z"/><path d="M150.76,105.19a247.24,247.24,0,0,1-25.28,1.41,202.48,202.48,0,0,1-23-1.58,1.58,1.58,0,0,1-1.56-1.5l-.25-5.61a1.55,1.55,0,0,1,1.26-1.61,98.81,98.81,0,0,1,18.18-1.37l10.38-.05a159.17,159.17,0,0,1,21.87,1.45,1.56,1.56,0,0,1,1.32,1.76l-.65,4.8A2.22,2.22,0,0,1,150.76,105.19Z"/><path class="cls-2" d="M229.66,156.89v4.26h-1.49a.28.28,0,0,0-.28.26.27.27,0,0,0,.28.25h1.77a.26.26,0,0,0,.27-.25v-4.52h.5a.7.7,0,0,0,.73-.67h0a.7.7,0,0,0-.73-.66h-.57a1.81,1.81,0,0,0-.75-1,2.58,2.58,0,0,0-1.59-.38h-9a2.87,2.87,0,0,0-1.93.57,2.38,2.38,0,0,0-.65,1.85v10.09a.3.3,0,0,0,.11.23.36.36,0,0,0,.25.1h9.77a.41.41,0,0,0,.22-.07l0,0a.33.33,0,0,0,.1-.23v-10.1a2.38,2.38,0,0,1,.33-1.36,1,1,0,0,1,.79-.54,2,2,0,0,1,1.25.28,1.24,1.24,0,0,1,.49.62"/><rect x="119.54" y="90.15" width="15.78" height="4.97" rx="0.73"/><path class="cls-5" d="M122.63,50.33l.1,4.63,1.06,1.36.29,5.59-3.19.19-.09,9.75-1.74.87V77s-3.18,2.42,0,6.18l.1,3.76L120,88l.57,1.35h13.71V85l1-1.25-.19-4s3.28-2.8.09-6.57V68.57l-.48-.39-.19-17.56"/><path d="M135.46,90.47H119.84l-.3-.7-.51-1.2-.77-.93-.25-.31v-.4l-.09-3.37a5.75,5.75,0,0,1-1.39-4.21,5,5,0,0,1,1.38-2.89V72l.64-.32,1.11-.55.09-9V61l1.07-.06,2-.12-.21-4.09-.83-1.06-.24-.3V55l-.1-4.63,2.32,0,.09,4.24.82,1.05.23.29v.37l.29,5.59.06,1.15-1.14.07L122,63.2,122,71.86v.71l-.63.32-1.1.54v4.11l-.46.35h0a2.77,2.77,0,0,0-.94,1.74,3.78,3.78,0,0,0,1.12,2.76l.27.31v.41l.08,3.37.62.75.11.13.06.15.28.65h11.78V84.58l.24-.31.7-.92-.17-3.63,0-.57.44-.37c.39-.34,2.25-2.22,0-4.93l-.27-.32v-4.4l-.05,0-.43-.35V68.2l-.19-17.56,2.32,0,.18,17,.06,0,.43.34V72.7a5.49,5.49,0,0,1-.07,7.43l.17,3.53,0,.43-.26.33-.73,1v5.1Z"/></svg>