<svg xmlns="http://www.w3.org/2000/svg" viewBox="0 0 209.17 169.62"><defs><style>.cls-1{fill:#231f20;}</style></defs><title>ICON 05</title><g id="Layer_2" data-name="Layer 2"><g id="Layer_2-2" data-name="Layer 2"><path class="cls-1" d="M191.1,28H172.75c-2-6.43-6.52-19-11.71-22.21-11.42-7.17-42.48-8.35-54.18.12C101.94,9.49,96.69,22.26,94.51,28H23A23,23,0,0,0,0,51v97.38a10.75,10.75,0,0,0,10.74,10.74H39.12A13.2,13.2,0,0,0,52,148.52H87.81a59.25,59.25,0,0,0,90.67,0H196a13.2,13.2,0,0,0,13.19-13.19V46.09A18.09,18.09,0,0,0,191.1,28ZM45.46,145.91a6.35,6.35,0,0,1-6.34,6.35H10.74a3.91,3.91,0,0,1-3.9-3.91V51A16.13,16.13,0,0,1,23,34.85H45.46V145.91Zm87.69,16.87A52.48,52.48,0,0,1,84.21,91.3h.59c0-.52,0-1,0-1.53a52.49,52.49,0,1,1,48.32,73ZM89.78,69.84a48.8,48.8,0,0,1,88.7,2.22,59.23,59.23,0,0,0-88.7-2.22Zm112.55,65.49a6.36,6.36,0,0,1-6.35,6.35H183.47A59.26,59.26,0,0,0,189.27,91,55.65,55.65,0,0,0,78.05,88.28a59.21,59.21,0,0,0,4.77,53.4H52.3V34.85H96.89a3.4,3.4,0,0,0,3.22-2.26c2.67-7.47,7.77-19,10.76-21.12,8.64-6.25,36.48-6.18,46.54.13,2.61,1.64,7,12.07,9.52,20.79a3.42,3.42,0,0,0,3.28,2.46H191.1a11.25,11.25,0,0,1,11.23,11.24Z"/><path class="cls-1" d="M133.15,80.41A29.88,29.88,0,1,0,163,110.29,29.91,29.91,0,0,0,133.15,80.41Zm0,54.87a25,25,0,1,1,25-25A25,25,0,0,1,133.15,135.28Z"/><path class="cls-1" d="M27.69,42.86c-4.05,0-7.33,2.09-7.33,4.66s3.28,4.65,7.33,4.65S35,50.08,35,47.52,31.73,42.86,27.69,42.86Z"/><path class="cls-1" d="M27.69,96.57A7.33,7.33,0,1,0,35,103.9,7.33,7.33,0,0,0,27.69,96.57Z"/></g></g></svg>