<svg id="Layer_1" data-name="Layer 1" xmlns="http://www.w3.org/2000/svg" viewBox="0 0 256 256"><defs><style>.cls-1,.cls-2,.cls-3{fill:none;stroke:#000;}.cls-1,.cls-2,.cls-3,.cls-4{stroke-miterlimit:10;}.cls-1{stroke-width:5px;}.cls-2{stroke-width:3px;}.cls-4{fill:#fff;stroke:#1d1d1b;}</style></defs><rect class="cls-1" x="7.56" y="57.41" width="240.88" height="60.21" rx="30.1" transform="translate(26.1 -29.36) rotate(14.55)"/><path d="M132.26,126.57l1.48-7.17-9.25-1.92-1.43,6.89a9.48,9.48,0,1,0,9.2,2.2Z"/><polygon class="cls-2" points="37.55 49.11 27.15 46.34 19.56 53.96 22.36 64.35 32.75 67.12 40.35 59.5 37.55 49.11"/><polygon class="cls-2" points="55.33 44.27 44.93 41.5 37.34 49.12 40.14 59.51 50.53 62.27 58.13 54.66 55.33 44.27"/><polygon class="cls-2" points="50.82 62.73 40.42 59.96 32.83 67.58 35.63 77.97 46.02 80.74 53.62 73.12 50.82 62.73"/><polygon class="cls-2" points="69.25 57.48 58.86 54.71 51.26 62.33 54.06 72.72 64.45 75.49 72.05 67.87 69.25 57.48"/><polygon class="cls-2" points="87.03 52.64 76.64 49.87 69.04 57.49 71.84 67.88 82.23 70.65 89.83 63.03 87.03 52.64"/><polygon class="cls-2" points="82.52 71.1 72.13 68.33 64.53 75.95 67.33 86.34 77.72 89.11 85.32 81.49 82.52 71.1"/><polygon class="cls-2" points="100.74 65.38 90.34 62.61 82.75 70.23 85.55 80.62 95.94 83.39 103.54 75.77 100.74 65.38"/><polygon class="cls-2" points="118.52 60.54 108.13 57.77 100.53 65.39 103.33 75.78 113.72 78.55 121.32 70.93 118.52 60.54"/><polygon class="cls-2" points="114.01 79 103.61 76.23 96.02 83.85 98.82 94.24 109.21 97.01 116.81 89.39 114.01 79"/><polygon class="cls-2" points="132.06 73.61 121.66 70.84 114.07 78.45 116.87 88.84 127.26 91.61 134.86 83.99 132.06 73.61"/><polygon class="cls-2" points="149.84 68.77 139.44 66 131.85 73.61 134.65 84 145.04 86.77 152.64 79.15 149.84 68.77"/><polygon class="cls-2" points="145.33 87.23 134.93 84.46 127.33 92.08 130.13 102.46 140.53 105.23 148.13 97.61 145.33 87.23"/><polygon class="cls-2" points="163.76 81.98 153.37 79.21 145.77 86.82 148.57 97.21 158.96 99.98 166.56 92.36 163.76 81.98"/><polygon class="cls-2" points="181.54 77.14 171.15 74.37 163.55 81.98 166.35 92.37 176.74 95.14 184.34 87.52 181.54 77.14"/><polygon class="cls-2" points="177.03 95.6 166.63 92.83 159.04 100.44 161.84 110.83 172.23 113.6 179.83 105.98 177.03 95.6"/><polygon class="cls-2" points="195.25 89.88 184.85 87.11 177.26 94.72 180.06 105.11 190.45 107.88 198.05 100.26 195.25 89.88"/><polygon class="cls-2" points="213.03 85.03 202.63 82.27 195.04 89.88 197.84 100.27 208.23 103.04 215.83 95.42 213.03 85.03"/><polygon class="cls-2" points="208.52 103.5 198.12 100.73 190.53 108.34 193.32 118.73 203.72 121.5 211.32 113.88 208.52 103.5"/><polygon class="cls-2" points="64.07 75.85 53.68 73.08 46.08 80.7 48.88 91.08 59.28 93.85 66.87 86.24 64.07 75.85"/><polygon class="cls-2" points="95.78 84.22 85.38 81.45 77.78 89.07 80.58 99.45 90.98 102.22 98.58 94.61 95.78 84.22"/><polygon class="cls-2" points="127.26 92.12 116.87 89.35 109.27 96.97 112.07 107.35 122.47 110.12 130.06 102.51 127.26 92.12"/><polygon class="cls-2" points="158.58 100.34 148.19 97.57 140.59 105.19 143.39 115.58 153.78 118.35 161.38 110.73 158.58 100.34"/><polygon class="cls-2" points="190.28 108.71 179.89 105.94 172.29 113.56 175.09 123.95 185.49 126.72 193.08 119.1 190.28 108.71"/><polygon class="cls-2" points="221.77 116.61 211.38 113.84 203.78 121.46 206.58 131.85 216.98 134.62 224.57 127 221.77 116.61"/><polygon class="cls-2" points="226.71 97.29 216.31 94.52 208.72 102.14 211.52 112.53 221.91 115.3 229.51 107.68 226.71 97.29"/><path class="cls-1" d="M144.76,60.62c-5.95-2.35-15.77,8.43-21.93,24.08s-6.34,30.22-.39,32.57"/><path class="cls-1" d="M147.12,61.26c-6-2.34-15.76,8.44-21.93,24.08s-6.34,30.23-.39,32.57"/><rect x="120.69" y="140.5" width="10.41" height="12.9" rx="2.33"/><path d="M131,155.21c6.17-.46,8.71-1.69,9.66-.38s-.6,4.31-.8,4.67c-1,1.83-1.74,1.74-2.63,3.55a9.89,9.89,0,0,0-1,3.7,13.5,13.5,0,0,0,.64,5.1s.69,2.49,1.94,8.48A56.21,56.21,0,0,1,140,190c.08,1.75,0,4.4-.16,9.71-.18,6.11-.25,5.69-.21,7.36.09,4.58.15,7.3,1.23,10.73.3.93.57,1.22.43,1.72-.18.68-1.19,2.32-14.54,2.31-4.25,0-13.74,0-13.9-1.51-.06-.52,1.08-.63,3-2.2a15.06,15.06,0,0,0,4.18-5.79,17.15,17.15,0,0,0,1.18-5.75,48.06,48.06,0,0,0-.48-14.11,66,66,0,0,0-2.95-10.25c-1.4-4-2.38-5.78-2.9-9.4-.34-2.33,0-2.28-.27-6.28-.45-7.69-1.67-9.64-.32-11,1-1,2-.38,8.11-.21A84.58,84.58,0,0,0,131,155.21Z"/><ellipse cx="124.83" cy="219.62" rx="16.4" ry="1.13"/><ellipse cx="124.6" cy="221.59" rx="16.4" ry="2.21"/><ellipse cx="124.5" cy="152.9" rx="16.4" ry="1.13"/><ellipse cx="124.28" cy="154.87" rx="16.4" ry="2.21"/><path d="M137,147.18a5.58,5.58,0,0,1,.52-2.35l-7.05-.35a1.31,1.31,0,0,0-1.37,1.24L129,147.9a1.31,1.31,0,0,0,1.24,1.37l7.34.36A5.45,5.45,0,0,1,137,147.18Z"/><path d="M165.31,146.19l-17.41-.86a5.66,5.66,0,0,1,.32,1.85,5.59,5.59,0,0,1-.83,2.93l17.69.87a1.3,1.3,0,0,0,1.36-1.24l.11-2.18A1.3,1.3,0,0,0,165.31,146.19Z"/><circle cx="142.61" cy="147.18" r="4.61"/><rect class="cls-3" x="154.28" y="140.02" width="8.37" height="17.28" rx="4.04" transform="matrix(0.99, -0.15, 0.15, 0.99, -20.21, 25.03)"/><ellipse class="cls-4" cx="157.15" cy="141.38" rx="5.08" ry="2.18" transform="translate(-23.21 31.13) rotate(-10.54)"/><ellipse cx="157.13" cy="141.03" rx="5.47" ry="2.35" transform="translate(-23.15 31.12) rotate(-10.54)"/><ellipse class="cls-3" cx="156.73" cy="139.35" rx="5.47" ry="2.35" transform="translate(-22.84 31.02) rotate(-10.54)"/><path class="cls-3" d="M131.63,123.49c2.85,5.43,5.86,7.18,8.16,7.73,3.32.78,5.42-1.06,8.8-.11s5.52,4,6.73,6.19"/><path d="M157.1,157.23s-2.49-9.18-1.72-13.53a9.32,9.32,0,0,1,3.92-.57c1.66.27,3.28,12.27,3.41,12.88S157.1,157.23,157.1,157.23Z"/></svg>