<svg xmlns="http://www.w3.org/2000/svg" viewBox="0 0 211.59 107.81"><defs><style>.cls-1{fill:#231f20;}</style></defs><title>ICON 03</title><g id="Layer_2" data-name="Layer 2"><g id="Layer_2-2" data-name="Layer 2"><path class="cls-1" d="M201.88,17.81a109.53,109.53,0,0,0-9-7.19,3.35,3.35,0,0,0-2.71-.54,3.42,3.42,0,0,0-2.22,1.67l-4.34,7.84H141.9a3.4,3.4,0,0,0-2.07.7,3.36,3.36,0,0,0-2-.7H70.25V10a3.41,3.41,0,0,0-1-2.44,3.45,3.45,0,0,0-2.47-.95L56.1,6.9,48.4.74A3.4,3.4,0,0,0,42.89,3.4v12H21.63a3.4,3.4,0,0,0-3.4,3.4V33a3.4,3.4,0,0,0,3.4,3.4H42.89v6.17A3.4,3.4,0,0,0,46.28,46H66.85a3.4,3.4,0,0,0,3.4-3.4v-11l6-.07L90.16,47.33H86.51a3.4,3.4,0,0,0-3.4,3.4v3.11H59.35L3.92,45.14a3.38,3.38,0,0,0-2.73.78A3.36,3.36,0,0,0,0,48.5v52.78a3.42,3.42,0,0,0,3.4,3.4,3.05,3.05,0,0,0,.6-.06l55.68-10,.23-.05h23.2v9.82a3.4,3.4,0,0,0,3.4,3.39h71a3.39,3.39,0,0,0,3.39-3.39V103H174.4a3.39,3.39,0,0,0,3.39-3.39v-3H184a1.45,1.45,0,0,0,1.45-1.45V66.42A1.45,1.45,0,0,0,184,65h-6.19V58.16a3.4,3.4,0,0,0-3.39-3.4H160.94v-4a3.4,3.4,0,0,0-3.39-3.4h-5.92L149.4,42h34.23l4.67,8.18a3.36,3.36,0,0,0,2.12,1.61,3.41,3.41,0,0,0,2.63-.42,102.7,102.7,0,0,0,8.73-6.23c8.67-6.92,9.75-10.73,9.81-13S210.72,25.69,201.88,17.81ZM25,29.61V22.16H42.89v7.45Zm38.42,9.58H49.68V10.46L52.83,13a3.43,3.43,0,0,0,2.23.74l8.39-.26ZM55.69,88.46,37.35,91.75V57.26l18.34,2.88Zm-48.9-36L30.56,56.2V93L6.79,97.22ZM82,87.8H62.48V60.63H82Zm8-20.64H101.7v21.9H89.91ZM154.15,101H89.91V92h13.24a1.46,1.46,0,0,0,1.46-1.46V65.71a1.46,1.46,0,0,0-1.46-1.46H89.91V54.12h20.58V89A1.46,1.46,0,0,0,112,90.47h42.2V101Zm-40.74-46.9h40.74V87.56H113.41Zm69.11,13.76V93.71h-4.73V67.88ZM171,61.56V96.23H160.94V61.56ZM99.2,47.33,80.84,26.39h54.68l8.75,20.94Zm98.27-7.44c-1.81,1.45-3.63,2.76-5.07,3.76l-3.84-6.73a3.41,3.41,0,0,0-2.95-1.72H147.46l-1.53-8.81h39.68a3.39,3.39,0,0,0,3-1.76L192,18.44c1.53,1.18,3.45,2.73,5.36,4.44,7.42,6.62,7.44,9.06,7.44,9.08S204.54,34.25,197.47,39.89Z"/><circle class="cls-1" cx="139.16" cy="73.16" r="4.41"/><rect class="cls-1" x="94.07" y="74.71" width="5.06" height="6.79" rx="1.94"/></g></g></svg>