<svg xmlns="http://www.w3.org/2000/svg" viewBox="0 0 211.99 139.89"><defs><style>.cls-1{fill:#231f20;}</style></defs><title>ICON 01</title><g id="Layer_2" data-name="Layer 2"><g id="Layer_2-2" data-name="Layer 2"><path class="cls-1" d="M211.92,73.49a39.39,39.39,0,0,0-13.3-27.29L157.71,10a39.65,39.65,0,0,0-56,3.4l-.53.59a39.79,39.79,0,0,0-6.66,10.43l.21.09-.6.14L61.93,33.17a14.18,14.18,0,0,0,3.64,27.88,13.78,13.78,0,0,0,3.63-.48l24.5-6.5a39.73,39.73,0,0,0,3.82,7.63L77.67,66.88a3.45,3.45,0,0,0-2.58,3.34v5.13l-13.53-.18L55.24,64.4a3.46,3.46,0,0,0-3-1.7h-27l-13.47-9a3.44,3.44,0,0,0-4.94,1.22L.42,66.75A3.52,3.52,0,0,0,0,68.43l.53,65.65a3.46,3.46,0,0,0,1.89,3.06A3.52,3.52,0,0,0,4,137.5a3.48,3.48,0,0,0,2-.65l19.34-14.06H52.26a3.45,3.45,0,0,0,2.92-1.61l6.67-10.55,13.24-1.52v27.34a3.45,3.45,0,0,0,3.45,3.44h37.25a3.47,3.47,0,0,0,2.78-1.4c2.73-3.73,6.56-8.3,8-9.18h0c1.54-1,7.77-2.53,12.67-3.43a3.44,3.44,0,0,0,2.07-1.24l11-13.65a39.22,39.22,0,0,0,19.51,5.16c.82,0,1.64,0,2.46-.07a39.45,39.45,0,0,0,27.29-13.3l.52-.59A39.38,39.38,0,0,0,211.92,73.49ZM6.92,71.3l13.57,6.75v39.74L7.37,127.33ZM75,102.18,59.42,104a3.47,3.47,0,0,0-2.52,1.58l-6.54,10.34H24.43V76.83a2,2,0,0,0-1.09-1.76L7.92,67.4l3.19-5.86L22.31,69a3.51,3.51,0,0,0,1.91.58H50.29l6.3,10.74A3.45,3.45,0,0,0,59.52,82l15.45.2ZM68.19,56.77A10.24,10.24,0,1,1,62.94,37l32.21-8.55a10.4,10.4,0,0,1,2.64-.34,10.24,10.24,0,0,1,2.61,20.13ZM82,97.27l.22,0h9.6V115a2,2,0,0,0,.67,1.49L111.54,133H82Zm54.72,22.07c-3.32.65-10.88,2.28-13.82,4.12h0c-2.13,1.33-5.23,5-7.43,7.74,0,0-.09-.1-.14-.14l-19.57-17V95.32a2,2,0,0,0-2-2H82.21l-.22,0V72.88l20.19-5.26c.77.81,1.57,1.59,2.42,2.34l10.52,9.32L146,107.69Zm60.15-21.72-.52.59A32.79,32.79,0,0,1,150.08,101L119.74,74.15,105.85,61.39a32.49,32.49,0,0,1-5.44-9.1l1-.26a14.2,14.2,0,0,0,10.07-17.34,14.06,14.06,0,0,0-6.59-8.62,13.84,13.84,0,0,0-2.9-1.28,32.73,32.73,0,0,1,4.37-6.26l.52-.59a32.79,32.79,0,0,1,46.26-2.81l40.91,36.23a32.79,32.79,0,0,1,2.81,46.26Z"/><path class="cls-1" d="M171.46,51.62a24,24,0,1,0,23.95,23.95A24,24,0,0,0,171.46,51.62Zm0,44a20,20,0,1,1,20-20A20,20,0,0,1,171.46,95.59Z"/><path class="cls-1" d="M34.29,73.94a2,2,0,0,0-2,2v33.54a2,2,0,0,0,3.94,0V75.91A2,2,0,0,0,34.29,73.94Z"/><path class="cls-1" d="M45.61,73.94a2,2,0,0,0-2,2v33.54a2,2,0,0,0,3.94,0V75.91A2,2,0,0,0,45.61,73.94Z"/><circle class="cls-1" cx="119.81" cy="101.1" r="5.79"/><circle class="cls-1" cx="89.5" cy="124.75" r="2.68" transform="translate(-26.27 23.9) rotate(-13.28)"/></g></g></svg>